<svg width="800" height="800" viewBox="0 0 32 32" xmlns="http://www.w3.org/2000/svg" xmlns:xlink="http://www.w3.org/1999/xlink" overflow="hidden"><path d="M29 10.232C29.0096 9.79607 28.8996 9.36584 28.682 8.988 28.4537 8.61703 28.1306 8.31362 27.746 8.109 24.2833 6.197 20.819 4.286 17.353 2.376 16.5009 1.86337 15.4331 1.87265 14.59 2.4 13.212 3.179 6.315 6.965 4.259 8.106 3.46003 8.50733 2.9682 9.33746 3 10.231L3 21.77C2.9899 22.1961 3.09345 22.6172 3.3 22.99 3.52966 23.3716 3.85964 23.6829 4.254 23.89 6.31 25.031 13.208 28.817 14.586 29.596 15.4287 30.124 16.4965 30.134 17.349 29.622 20.809 27.708 24.271 25.797 27.735 23.889 28.1294 23.6817 28.4597 23.3704 28.69 22.989 28.8966 22.6162 29.0001 22.1951 28.99 21.769L28.99 10.232" fill="#659AD2"/><path d="M28.549 23.171C28.6013 23.1131 28.6504 23.0523 28.696 22.989 28.9026 22.6162 29.0061 22.1951 28.996 21.769L28.996 10.232C29.0056 9.79607 28.8956 9.36584 28.678 8.988 28.642 8.929 28.589 8.883 28.548 8.828L16 16Z" fill="#00599C"/><path d="M28.549 23.171 16 16 3.451 23.171C3.6632 23.4687 3.9397 23.7148 4.26 23.891 6.316 25.032 13.214 28.818 14.592 29.597 15.4347 30.125 16.5025 30.135 17.355 29.623 20.815 27.709 24.277 25.798 27.741 23.89 28.0609 23.7141 28.3371 23.4683 28.549 23.171Z" fill="#004482"/><path d="M19.6 18.02C18.4845 20.0038 15.9719 20.7077 13.9881 19.5922 12.0043 18.4767 11.3004 15.9641 12.4159 13.9803 13.5314 11.9964 16.044 11.2926 18.0278 12.4081 18.6699 12.7692 19.2035 13.2957 19.573 13.933L23.188 11.86C20.8776 7.89509 15.7905 6.5538 11.8256 8.86417 9.28437 10.3449 7.71532 13.0589 7.7 16 7.69819 17.4452 8.07762 18.8653 8.8 20.117 11.1009 24.0938 16.19 25.4523 20.1668 23.1514 21.432 22.4194 22.482 21.3669 23.211 20.1L19.6 18.02" fill="#FFFFFF"/><path d="M24.076 15.538 23.15 15.538 23.15 14.617 22.225 14.617 22.225 15.538 21.299 15.538 21.299 16.461 22.225 16.461 22.225 17.381 23.15 17.381 23.15 16.461 24.076 16.461 24.076 15.538Z" fill="#FFFFFF"/><path d="M27.549 15.538 26.623 15.538 26.623 14.617 25.697 14.617 25.697 15.538 24.771 15.538 24.771 16.461 25.697 16.461 25.697 17.381 26.623 17.381 26.623 16.461 27.549 16.461 27.549 15.538Z" fill="#FFFFFF"/></svg>