<svg width="800" height="800" viewBox="0 0 32 32" xmlns="http://www.w3.org/2000/svg" xmlns:xlink="http://www.w3.org/1999/xlink" overflow="hidden"><path d="M12.325 23.654C12.325 23.654 11.255 24.276 13.086 24.487 15.0182 24.7588 16.9838 24.6755 18.886 24.241 19.3774 24.5349 19.8929 24.7865 20.427 24.993 14.946 27.342 8.022 24.857 12.327 23.654" fill="#5382A1"/><path d="M11.656 20.588C11.656 20.588 10.456 21.476 12.289 21.666 14.7853 21.9629 17.3136 21.8416 19.77 21.307 20.1021 21.6167 20.4942 21.8549 20.922 22.007 14.295 23.945 6.913 22.16 11.656 20.586" fill="#5382A1"/><path d="M17.3 15.388C18.0227 16.2603 17.9014 17.5532 17.0292 18.2759 17.0017 18.2986 16.9736 18.3207 16.945 18.342 16.945 18.342 20.374 16.572 18.799 14.355 17.328 12.288 16.199 11.26 22.307 7.719 22.307 7.719 12.721 10.113 17.3 15.388" fill="#5382A1"/><path d="M24.552 25.921C24.552 25.921 25.344 26.573 23.68 27.078 20.516 28.036 10.512 28.326 7.732 27.116 6.732 26.681 8.606 26.078 9.196 25.952 9.51205 25.8748 9.8367 25.8385 10.162 25.844 9.051 25.061 2.981 27.381 7.079 28.044 18.255 29.856 27.451 27.228 24.552 25.92" fill="#5382A1"/><path d="M12.84 17.412C12.84 17.412 7.751 18.621 11.04 19.06 13.2814 19.234 15.5338 19.2099 17.771 18.988 19.877 18.81 21.992 18.433 21.992 18.433 21.5475 18.6262 21.1194 18.8553 20.712 19.118 15.544 20.477 5.561 19.845 8.435 18.455 9.80027 17.7623 11.3111 17.405 12.842 17.413" fill="#5382A1"/><path d="M21.969 22.515C27.222 19.785 24.793 17.162 23.098 17.515 22.8941 17.5528 22.6934 17.6066 22.498 17.676 22.6093 17.518 22.7658 17.3973 22.947 17.33 26.301 16.151 28.88 20.808 21.864 22.652 21.9078 22.6132 21.9438 22.5664 21.97 22.514" fill="#5382A1"/><path d="M18.8 2C18.8 2 21.709 4.91 16.041 9.386 11.495 12.976 15.004 15.023 16.041 17.361 13.388 14.967 11.441 12.861 12.747 10.898 14.664 8.019 19.976 6.623 18.8 2" fill="#5382A1"/><path d="M13.356 29.912C18.398 30.235 26.142 29.733 26.325 27.347 26.325 27.347 25.972 28.247 22.158 28.97 17.9405 29.6948 13.6362 29.7623 9.398 29.17 9.398 29.17 10.043 29.703 13.357 29.916" fill="#5382A1"/></svg>