<svg width="800" height="800" viewBox="0 0 32 32" xmlns="http://www.w3.org/2000/svg" xmlns:xlink="http://www.w3.org/1999/xlink" overflow="hidden"><path d="M7.6 13.791C8.22281 13.7127 8.85109 13.8866 9.345 14.274 9.66467 14.7664 9.74096 15.3782 9.552 15.934 9.47019 16.6094 9.14357 17.2313 8.634 17.682 8.01949 18.0778 7.29308 18.2635 6.564 18.211L5.164 18.211 6.024 13.8ZM2 22.677 4.3 22.677 4.845 19.877 6.812 19.877C7.53666 19.8955 8.25983 19.802 8.956 19.6 9.52776 19.4112 10.0504 19.0977 10.486 18.682 11.2394 18.0045 11.7472 17.0966 11.93 16.1 12.2227 15.094 12.0184 14.0087 11.38 13.178 10.6119 12.4168 9.54716 12.033 8.47 12.129L4.057 12.129Z" fill="#8993BE"/><path d="M13.617 9.323 15.9 9.323 15.347 12.123 17.378 12.123C18.3111 12.0253 19.2486 12.2624 20.023 12.792 20.5445 13.3848 20.7107 14.2106 20.459 14.959L19.505 19.868 17.195 19.868 18.103 15.201C18.2309 14.8404 18.1891 14.4412 17.989 14.115 17.658 13.8775 17.2488 13.7752 16.845 13.829L15.022 13.829 13.847 19.873 11.559 19.873Z" fill="#8993BE"/><path d="M25.539 13.791C26.1618 13.7127 26.7901 13.8866 27.284 14.274 27.6037 14.7664 27.68 15.3782 27.491 15.934 27.4092 16.6094 27.0826 17.2313 26.573 17.682 25.9574 18.0787 25.2294 18.2644 24.499 18.211L23.1 18.211 23.958 13.795ZM19.939 22.677 22.239 22.677 22.784 19.877 24.752 19.877C25.478 19.8959 26.2025 19.8024 26.9 19.6 27.4718 19.4112 27.9944 19.0977 28.43 18.682 29.1816 18.0038 29.6875 17.0959 29.869 16.1 30.1617 15.094 29.9574 14.0087 29.319 13.178 28.5506 12.4182 27.4864 12.0355 26.41 12.132L21.99 12.132Z" fill="#8993BE"/></svg>