<svg width="800" height="800" viewBox="0 0 32 32" xmlns="http://www.w3.org/2000/svg" xmlns:xlink="http://www.w3.org/1999/xlink" overflow="hidden"><defs><linearGradient x1="-133.268" y1="-202.91" x2="-133.198" y2="-202.84" gradientUnits="userSpaceOnUse" id="a" gradientTransform="matrix(189.38 0 0 189.81 25243.1 38519.2)"><stop offset="0" stop-color="#387EB8"/><stop offset="1" stop-color="#366994"/></linearGradient><linearGradient x1="-133.575" y1="-203.203" x2="-133.495" y2="-203.133" gradientUnits="userSpaceOnUse" id="b" gradientTransform="matrix(189.38 0 0 189.81 25309.1 38583.4)"><stop offset="0" stop-color="#FFE052"/><stop offset="1" stop-color="#FFC331"/></linearGradient></defs><path d="M15.885 2.1C8.785 2.1 9.234 5.17 9.234 5.17L9.234 8.36 15.986 8.36 15.986 9.36 6.545 9.36C6.545 9.36 2 8.8 2 16.005 2 23.21 6.013 22.917 6.013 22.917L8.33 22.917 8.33 19.556C8.33 19.556 8.2 15.543 12.23 15.543L18.992 15.543C18.992 15.543 22.764 15.603 22.764 11.891L22.764 5.8C22.764 5.8 23.336 2.088 15.922 2.088L15.922 2.088ZM12.153 4.237C12.8233 4.22009 13.3803 4.74973 13.3972 5.41999 13.4141 6.09025 12.8845 6.64732 12.2142 6.66423 11.544 6.68114 10.9869 6.15149 10.97 5.48123 10.97 5.48116 10.97 5.48108 10.97 5.481L10.97 5.461C10.97 4.79053 11.5135 4.247 12.184 4.247L12.184 4.247Z" fill="url(#a)"/><path d="M16.085 29.91C23.185 29.91 22.736 26.83 22.736 26.83L22.736 23.65 15.985 23.65 15.985 22.65 25.455 22.65C25.455 22.65 30 23.158 30 15.995 30 8.832 25.987 9.083 25.987 9.083L23.64 9.083 23.64 12.4C23.64 12.4 23.77 16.413 19.74 16.413L12.975 16.413C12.975 16.413 9.2 16.356 9.2 20.068L9.2 26.2C9.2 26.2 8.628 29.912 16.042 29.912L16.082 29.912ZM19.817 27.763C19.1467 27.7799 18.5897 27.2503 18.5728 26.58 18.5559 25.9097 19.0855 25.3527 19.7558 25.3358 20.426 25.3189 20.9831 25.8485 21 26.5188 21 26.5188 21 26.5189 21 26.519L21 26.549C21 27.2195 20.4565 27.763 19.786 27.763L19.816 27.763Z" fill="url(#b)"/></svg>