<svg width="800" height="800" viewBox="0 0 32 32" xmlns="http://www.w3.org/2000/svg" xmlns:xlink="http://www.w3.org/1999/xlink" overflow="hidden"><path d="M8.562 15.256C10.95 16.0954 13.4693 16.4994 16 16.449 18.5308 16.4991 21.05 16.0947 23.438 15.255 25.302 14.528 25.963 13.72 25.963 13.255L25.963 9.7C25.3113 10.1364 24.6122 10.4974 23.879 10.776 21.3524 11.6807 18.6833 12.1218 16 12.078 13.3169 12.121 10.6481 11.6806 8.121 10.778 7.38747 10.4994 6.68825 10.1377 6.037 9.7L6.037 13.25C6.037 13.724 6.7 14.528 8.562 15.256Z" fill="#FFDA44"/><path d="M8.562 21.961C9.40561 22.2827 10.2755 22.5307 11.162 22.702 12.756 23.0104 14.3764 23.1621 16 23.155 17.6235 23.1624 19.2439 23.011 20.838 22.703 21.7245 22.5316 22.5944 22.2837 23.438 21.962 25.302 21.235 25.963 20.427 25.963 19.962L25.963 16.572C25.4243 16.8961 24.8581 17.1722 24.271 17.397 21.6168 18.3368 18.8152 18.7917 16 18.74 13.1845 18.7901 10.3829 18.3335 7.729 17.392 7.14212 17.1666 6.57598 16.8906 6.037 16.567L6.037 19.96C6.037 20.426 6.7 21.231 8.562 21.961Z" fill="#FFDA44"/><path d="M16 30C21.5 30 25.963 28.256 25.963 26.106L25.963 23.269C25.4729 23.5644 24.9596 23.8192 24.428 24.031L24.271 24.094C21.6173 25.0365 18.8157 25.4942 16 25.445 13.1842 25.4956 10.3824 25.0379 7.729 24.094 7.675 24.074 7.623 24.051 7.572 24.031 7.04043 23.8193 6.52705 23.5644 6.037 23.269L6.037 26.106C6.037 28.256 10.5 30 16 30Z" fill="#FFDA44"/><ellipse cx="16" cy="5.894" rx="9.963" ry="3.894" fill="#FFDA44"/></svg>