<svg width="800" height="800" viewBox="0 0 32 32" xmlns="http://www.w3.org/2000/svg" xmlns:xlink="http://www.w3.org/1999/xlink" overflow="hidden"><path d="M29.007 17.4 29.044 17.4C29.3841 17.408 29.7161 17.2962 29.982 17.084 30.2881 16.8252 30.4755 16.453 30.501 16.053L30.501 15.9C30.4433 15.1781 29.849 14.6167 29.125 14.6L29.116 14.6C28.429 14.6 27.742 14.6 27.054 14.6L25.5 14.6 25.5 11.956 29.013 11.956 29.047 11.956C29.8215 11.9796 30.4702 11.3743 30.5 10.6L30.5 10.51 30.5 10.478C30.472 10.0294 30.2321 9.62095 29.854 9.378 29.6049 9.22011 29.3137 9.14164 29.019 9.153L25.456 9.153C25.427 8.7943 25.3328 8.4439 25.178 8.119 24.8292 7.42446 24.2171 6.89836 23.478 6.658 23.2743 6.58964 23.0631 6.546 22.849 6.528L22.849 4.947C22.849 4.257 22.849 3.567 22.849 2.884 22.8334 2.13235 22.2324 1.5243 21.481 1.5L21.365 1.5C20.6282 1.54268 20.0511 2.14999 20.046 2.888 20.046 3.65733 20.046 4.426 20.046 5.194L20.046 6.5 17.4 6.5 17.4 4.981C17.4 4.281 17.4 3.581 17.4 2.894 17.3923 2.14543 16.8009 1.53341 16.053 1.5L15.9 1.5C15.1744 1.55574 14.6108 2.15531 14.6 2.883 14.6 3.571 14.6 4.259 14.6 4.947L14.6 6.508C13.7207 6.508 12.841 6.508 11.961 6.508L11.961 4.888C11.961 4.222 11.961 3.556 11.961 2.899 11.9634 2.53358 11.8194 2.18241 11.561 1.924 11.3022 1.65778 10.9482 1.50526 10.577 1.5L10.5 1.5C9.75943 1.53614 9.17337 2.13968 9.159 2.881 9.159 3.564 9.159 4.247 9.159 4.93L9.159 6.53C8.04098 6.63885 7.08334 7.3767 6.693 8.43 6.60816 8.66402 6.55404 8.90806 6.532 9.156L4.957 9.156C4.264 9.156 3.571 9.156 2.884 9.156L2.876 9.156C2.13614 9.17451 1.53591 9.76078 1.5 10.5L1.5 10.595C1.51506 11.0274 1.72683 11.4292 2.075 11.686 2.3332 11.8709 2.64454 11.9667 2.962 11.959L2.979 11.959 6.501 11.959 6.501 14.6 4.948 14.6C4.262 14.6 3.573 14.6 2.891 14.6 2.1594 14.6166 1.55874 15.1836 1.5 15.913L1.5 16.1C1.55215 16.8285 2.15562 17.3946 2.886 17.4 3.597 17.4 4.309 17.4 5.021 17.4L6.5 17.4 6.5 20.05 6.208 20.05C5.595 20.043 4.982 20.05 4.37 20.05L3.087 20.05C2.76692 20.0286 2.44763 20.102 2.169 20.261 1.77437 20.5096 1.52494 20.9343 1.5 21.4L1.5 21.5C1.54129 22.2353 2.13888 22.8163 2.875 22.837L2.88 22.837C3.31 22.837 3.74 22.837 4.17 22.837L6.546 22.837C6.62918 23.9975 7.41371 24.9891 8.524 25.337 8.7285 25.4046 8.94033 25.4475 9.155 25.465L9.155 27.085C9.155 27.763 9.155 28.439 9.155 29.11 9.1804 29.8832 9.8278 30.4894 10.601 30.464 11.3742 30.4386 11.9804 29.7912 11.955 29.018L11.955 25.491 14.6 25.491 14.6 29.007C14.5556 29.7867 15.1516 30.4547 15.9312 30.4992 15.9365 30.4995 15.9417 30.4998 15.947 30.5L16.1 30.5C16.8257 30.4428 17.3888 29.8429 17.4 29.115 17.404 28.4043 17.404 27.694 17.4 26.984L17.4 25.5 20.044 25.5 20.044 29.1C20.0553 29.8516 20.6492 30.4647 21.4 30.5L21.519 30.5C22.0083 30.4717 22.4476 30.1911 22.679 29.759 22.8067 29.5008 22.8643 29.2135 22.846 28.926L22.846 25.474C23.057 25.4561 23.2651 25.4131 23.466 25.346 24.3616 25.0564 25.0633 24.3539 25.352 23.458 25.4155 23.2588 25.4567 23.0532 25.475 22.845L27.056 22.845C27.743 22.845 28.431 22.845 29.113 22.845L29.121 22.845C29.8675 22.823 30.4699 22.2273 30.5 21.481L30.5 21.363C30.4527 20.6309 29.8515 20.0575 29.118 20.045L29.118 20.045C28.4 20.045 27.682 20.045 26.964 20.045L25.5 20.045 25.5 17.4Z" fill="#C5C5C5" opacity="0.3"/><path d="M10.515 2 10.571 2C11.0577 2.01276 11.4481 2.40626 11.457 2.893 11.463 4.001 11.457 5.109 11.457 6.217 10.857 6.217 10.257 6.217 9.657 6.217 9.657 5.106 9.657 3.995 9.657 2.884 9.66833 2.41051 10.0421 2.02545 10.515 2Z" fill="#1A348F"/><path d="M15.937 2 16.053 2C16.522 2.03391 16.8884 2.41888 16.899 2.889 16.905 3.998 16.899 5.108 16.899 6.218L15.1 6.218C15.1 5.108 15.1 3.998 15.1 2.888 15.1103 2.42126 15.4717 2.03781 15.937 2Z" fill="#1A348F"/><path d="M21.392 2 21.481 2C21.9532 2.02485 22.3271 2.40831 22.34 2.881 22.347 3.993 22.34 5.106 22.34 6.218L20.54 6.218C20.54 5.109 20.54 4.001 20.54 2.892 20.5494 2.41857 20.9195 2.03106 21.392 2Z" fill="#1A348F"/><path d="M2 10.518C2.02535 10.0456 2.40913 9.67187 2.882 9.659 3.994 9.652 5.105 9.659 6.216 9.659 6.216 10.259 6.216 10.859 6.216 11.459 5.137 11.459 4.058 11.459 2.979 11.459 2.76551 11.4681 2.55488 11.4073 2.379 11.286 2.14947 11.1186 2.0097 10.8549 2 10.571Z" fill="#1A348F"/><path d="M25.786 9.655 29.019 9.655C29.216 9.64631 29.4112 9.69606 29.58 9.798 29.8254 9.95681 29.9811 10.2223 30 10.514L30 10.572C29.9907 10.8203 29.8827 11.0546 29.7 11.223 29.5131 11.3857 29.2705 11.4696 29.023 11.457 27.944 11.457 26.865 11.457 25.786 11.457 25.786 10.8563 25.786 10.2557 25.786 9.655Z" fill="#1A348F"/><path d="M2 15.944C2.03628 15.4771 2.41987 15.1134 2.888 15.102 3.997 15.095 5.107 15.102 6.216 15.102 6.216 15.702 6.216 16.302 6.216 16.902 5.107 16.902 3.999 16.902 2.89 16.902 2.42253 16.8908 2.03871 16.529 2 16.063Z" fill="#1A348F"/><path d="M25.786 15.1C26.895 15.1 28.004 15.1 29.112 15.1 29.5779 15.111 29.9609 15.4707 30.001 15.935L30.001 16.052C29.9797 16.301 29.8607 16.5314 29.67 16.693 29.4851 16.8384 29.2539 16.9119 29.019 16.9L25.786 16.9C25.7853 16.3 25.7853 15.7 25.786 15.1Z" fill="#1A348F"/><path d="M2.433 20.678C2.62893 20.5694 2.85289 20.5221 3.076 20.542 4.119 20.548 5.162 20.536 6.205 20.548 6.233 21.148 6.205 21.748 6.217 22.348 5.107 22.348 3.996 22.348 2.886 22.348 2.40999 22.3355 2.02388 21.9586 2 21.483L2 21.4C2.0201 21.1038 2.18116 20.8352 2.433 20.678Z" fill="#1A348F"/><path d="M25.786 20.543C26.894 20.543 28.002 20.543 29.11 20.543 29.5805 20.5541 29.9656 20.9206 30 21.39L30 21.48C29.973 21.954 29.5866 22.3278 29.112 22.339 28.003 22.346 26.894 22.339 25.786 22.339 25.786 21.743 25.785 21.143 25.786 20.543Z" fill="#1A348F"/><path d="M9.656 25.781 11.456 25.781C11.456 26.862 11.456 27.943 11.456 29.024 11.4683 29.2716 11.3841 29.5143 11.221 29.701 11.0523 29.8844 10.817 29.9924 10.568 30.001L10.516 30.001C10.043 29.9766 9.66843 29.5924 9.656 29.119 9.651 28.006 9.658 26.894 9.656 25.781Z" fill="#1A348F"/><path d="M15.1 25.781 16.9 25.781C16.9 26.891 16.9 28.001 16.9 29.111 16.8889 29.5772 16.5287 29.9603 16.064 30L15.948 30C15.7103 29.9802 15.489 29.8708 15.329 29.694 15.1699 29.507 15.0883 29.2662 15.101 29.021 15.1003 27.9403 15.1 26.8603 15.1 25.781Z" fill="#1A348F"/><path d="M20.547 29.106C20.547 27.998 20.547 26.889 20.547 25.781L22.347 25.781C22.347 26.829 22.347 27.881 22.347 28.925 22.3634 29.1274 22.3273 29.3307 22.242 29.515 22.0911 29.7967 21.805 29.9799 21.486 29.999L21.4 29.999C20.9265 29.9689 20.5554 29.5804 20.547 29.106Z" fill="#1A348F"/><path d="M24.732 8.349C24.4398 7.76929 23.9277 7.33066 23.31 7.131 22.9676 7.02952 22.6108 6.98526 22.254 7 17.954 7.008 13.654 6.989 9.349 7.01 8.36241 7.04862 7.49671 7.67894 7.157 8.606 7.02244 9.03503 6.9692 9.48542 7 9.934 7 14.1007 7 18.2673 7 22.434 6.99189 22.8558 7.08372 23.2735 7.268 23.653 7.56012 24.2318 8.07132 24.6699 8.688 24.87 9.09088 24.982 9.50964 25.0259 9.927 25L22.07 25C22.4885 25.0273 22.9086 24.9843 23.313 24.873 24.0565 24.6307 24.6379 24.0452 24.875 23.3 24.9834 22.8999 25.0256 22.4847 25 22.071 25 17.9043 25 13.7377 25 9.571 25.0081 9.14825 24.9163 8.72956 24.732 8.349Z" fill="#1A348F"/><path d="M7.5 8.307 7.584 8.107C8.22933 8.107 8.87433 8.115 9.519 8.131L9.913 8.131C10.0323 8.131 10.1637 8.127 10.307 8.119 10.8243 8.095 11.76 8.083 13.114 8.083 13.3847 8.083 13.6473 8.085 13.902 8.089 14.1567 8.093 14.4037 8.099 14.643 8.107 14.6901 8.12991 14.7281 8.16793 14.751 8.215L14.727 8.406C14.679 8.48533 14.5597 8.525 14.369 8.525L14.269 8.525C13.9016 8.52337 13.5344 8.5414 13.169 8.579 12.8209 8.57961 12.478 8.66362 12.169 8.824 12.0668 8.90929 12.0096 9.03694 12.014 9.17 12.0598 9.65662 12.1933 10.1309 12.408 10.57L14.226 14.787 14.86 16.187C15.474 17.6683 16.0803 19.1813 16.679 20.726 16.7457 20.8933 16.8053 21.0447 16.858 21.18L17.658 19.221C18.0713 18.2337 18.4887 17.1823 18.91 16.067L19.733 13.821C19.749 13.773 19.7927 13.6137 19.864 13.343 20.4119 12.062 20.8004 10.7186 21.021 9.343 21.0136 9.20607 20.9564 9.07658 20.86 8.979 20.7159 8.83529 20.5366 8.73186 20.34 8.679 20.0325 8.6124 19.7213 8.56464 19.408 8.536L18.524 8.428C18.4659 8.37585 18.4278 8.30516 18.416 8.228L18.452 8.128 22.322 8.092 23.6 8.092C23.8975 8.07734 24.1956 8.10563 24.485 8.176L24.497 8.276C24.4905 8.36372 24.466 8.44916 24.425 8.527 24.2546 8.58591 24.0782 8.62582 23.899 8.646 23.4709 8.66489 23.0496 8.76005 22.655 8.927 22.4363 9.11321 22.265 9.34867 22.155 9.614L19.021 17.379C18.0437 19.7123 17.3483 21.52 16.935 22.802L16.59 23.841C16.5129 23.8974 16.4221 23.9319 16.327 23.941 16.226 23.94 16.1254 23.9279 16.027 23.905 15.079 21.4543 14.3063 19.5607 13.709 18.224L10.055 9.92C9.90849 9.59274 9.70879 9.292 9.464 9.03 9.0251 8.82833 8.56139 8.68575 8.085 8.606 7.92759 8.57496 7.77202 8.53524 7.619 8.487 7.56005 8.44225 7.51808 8.37877 7.5 8.307Z" fill="#C5C2FF"/></svg>